<svg id="visual" viewBox="0 0 960 540" width="960" height="540" xmlns="http://www.w3.org/2000/svg" xmlns:xlink="http://www.w3.org/1999/xlink" version="1.1"><rect x="0" y="0" width="960" height="540" fill="#020113"></rect><defs><linearGradient id="grad1_0" x1="43.8%" y1="0%" x2="100%" y2="100%"><stop offset="14.444444444444446%" stop-color="#e7a713" stop-opacity="1"></stop><stop offset="85.55555555555554%" stop-color="#e7a713" stop-opacity="1"></stop></linearGradient></defs><defs><linearGradient id="grad1_1" x1="43.8%" y1="0%" x2="100%" y2="100%"><stop offset="14.444444444444446%" stop-color="#e7a713" stop-opacity="1"></stop><stop offset="85.55555555555554%" stop-color="#d26140" stop-opacity="1"></stop></linearGradient></defs><defs><linearGradient id="grad1_2" x1="43.8%" y1="0%" x2="100%" y2="100%"><stop offset="14.444444444444446%" stop-color="#923651" stop-opacity="1"></stop><stop offset="85.55555555555554%" stop-color="#d26140" stop-opacity="1"></stop></linearGradient></defs><defs><linearGradient id="grad1_3" x1="43.8%" y1="0%" x2="100%" y2="100%"><stop offset="14.444444444444446%" stop-color="#923651" stop-opacity="1"></stop><stop offset="85.55555555555554%" stop-color="#432240" stop-opacity="1"></stop></linearGradient></defs><defs><linearGradient id="grad1_4" x1="43.8%" y1="0%" x2="100%" y2="100%"><stop offset="14.444444444444446%" stop-color="#020113" stop-opacity="1"></stop><stop offset="85.55555555555554%" stop-color="#432240" stop-opacity="1"></stop></linearGradient></defs><defs><linearGradient id="grad2_0" x1="0%" y1="0%" x2="56.3%" y2="100%"><stop offset="14.444444444444446%" stop-color="#e7a713" stop-opacity="1"></stop><stop offset="85.55555555555554%" stop-color="#e7a713" stop-opacity="1"></stop></linearGradient></defs><defs><linearGradient id="grad2_1" x1="0%" y1="0%" x2="56.3%" y2="100%"><stop offset="14.444444444444446%" stop-color="#d26140" stop-opacity="1"></stop><stop offset="85.55555555555554%" stop-color="#e7a713" stop-opacity="1"></stop></linearGradient></defs><defs><linearGradient id="grad2_2" x1="0%" y1="0%" x2="56.3%" y2="100%"><stop offset="14.444444444444446%" stop-color="#d26140" stop-opacity="1"></stop><stop offset="85.55555555555554%" stop-color="#923651" stop-opacity="1"></stop></linearGradient></defs><defs><linearGradient id="grad2_3" x1="0%" y1="0%" x2="56.3%" y2="100%"><stop offset="14.444444444444446%" stop-color="#432240" stop-opacity="1"></stop><stop offset="85.55555555555554%" stop-color="#923651" stop-opacity="1"></stop></linearGradient></defs><defs><linearGradient id="grad2_4" x1="0%" y1="0%" x2="56.3%" y2="100%"><stop offset="14.444444444444446%" stop-color="#432240" stop-opacity="1"></stop><stop offset="85.55555555555554%" stop-color="#020113" stop-opacity="1"></stop></linearGradient></defs><g transform="translate(960, 0)"><path d="M0 486C-55.7 484.6 -111.3 483.1 -147.1 452.7C-182.8 422.3 -198.6 362.9 -244.5 336.6C-290.4 310.2 -366.3 316.8 -393.2 285.7C-420 254.5 -397.9 185.6 -405.2 131.6C-412.4 77.7 -449.2 38.9 -486 0L0 0Z" fill="#21162c"></path><path d="M0 388.8C-44.5 387.6 -89.1 386.5 -117.7 362.2C-146.3 337.8 -158.9 290.3 -195.6 269.2C-232.3 248.1 -293.1 253.5 -314.5 228.5C-336 203.6 -318.3 148.4 -324.1 105.3C-330 62.2 -359.4 31.1 -388.8 0L0 0Z" fill="#6a2b4d"></path><path d="M0 291.6C-33.4 290.7 -66.8 289.9 -88.3 271.6C-109.7 253.4 -119.2 217.8 -146.7 201.9C-174.2 186.1 -219.8 190.1 -235.9 171.4C-252 152.7 -238.7 111.3 -243.1 79C-247.5 46.6 -269.5 23.3 -291.6 0L0 0Z" fill="#b6474c"></path><path d="M0 194.4C-22.3 193.8 -44.5 193.2 -58.8 181.1C-73.1 168.9 -79.5 145.2 -97.8 134.6C-116.2 124.1 -146.5 126.7 -157.3 114.3C-168 101.8 -159.1 74.2 -162.1 52.7C-165 31.1 -179.7 15.5 -194.4 0L0 0Z" fill="#e3822e"></path><path d="M0 97.2C-11.1 96.9 -22.3 96.6 -29.4 90.5C-36.6 84.5 -39.7 72.6 -48.9 67.3C-58.1 62 -73.3 63.4 -78.6 57.1C-84 50.9 -79.6 37.1 -81 26.3C-82.5 15.5 -89.8 7.8 -97.2 0L0 0Z" fill="#e7a713"></path></g><g transform="translate(0, 540)"><path d="M0 -486C56.7 -490.7 113.3 -495.5 150.2 -462.2C187 -428.9 204.1 -357.6 229.8 -316.3C255.5 -275 289.9 -263.7 334.1 -242.8C378.3 -221.8 432.4 -191.3 459.4 -149.3C486.3 -107.2 486.2 -53.6 486 0L0 0Z" fill="#21162c"></path><path d="M0 -388.8C45.3 -392.6 90.7 -396.4 120.1 -369.8C149.6 -343.1 163.3 -286.1 183.9 -253.1C204.4 -220 231.9 -210.9 267.3 -194.2C302.7 -177.5 345.9 -153.1 367.5 -119.4C389.1 -85.8 388.9 -42.9 388.8 0L0 0Z" fill="#6a2b4d"></path><path d="M0 -291.6C34 -294.4 68 -297.3 90.1 -277.3C112.2 -257.4 122.5 -214.6 137.9 -189.8C153.3 -165 173.9 -158.2 200.5 -145.7C227 -133.1 259.4 -114.8 275.6 -89.6C291.8 -64.3 291.7 -32.2 291.6 0L0 0Z" fill="#b6474c"></path><path d="M0 -194.4C22.7 -196.3 45.3 -198.2 60.1 -184.9C74.8 -171.6 81.6 -143.1 91.9 -126.5C102.2 -110 116 -105.5 133.6 -97.1C151.3 -88.7 173 -76.5 183.7 -59.7C194.5 -42.9 194.5 -21.4 194.4 0L0 0Z" fill="#e3822e"></path><path d="M0 -97.2C11.3 -98.1 22.7 -99.1 30 -92.4C37.4 -85.8 40.8 -71.5 46 -63.3C51.1 -55 58 -52.7 66.8 -48.6C75.7 -44.4 86.5 -38.3 91.9 -29.9C97.3 -21.4 97.2 -10.7 97.2 0L0 0Z" fill="#e7a713"></path></g></svg>